<?xml version="1.0" standalone="no"?>
<!DOCTYPE svg PUBLIC "-//W3C//DTD SVG 20010904//EN"
 "http://www.w3.org/TR/2001/REC-SVG-20010904/DTD/svg10.dtd">
<svg version="1.0" xmlns="http://www.w3.org/2000/svg"
 width="798.000000pt" height="798.000000pt" viewBox="0 0 798.000000 798.000000"
 preserveAspectRatio="xMidYMid meet">
<metadata>
Created by potrace 1.11, written by Peter Selinger 2001-2013
</metadata>
<g transform="translate(0.000000,798.000000) scale(0.100000,-0.100000)"
fill="#000000" stroke="none">
<path d="M0 7330 l0 -650 30 0 c29 0 30 -1 30 -50 0 -27 5 -50 10 -50 6 0 10
7 10 15 0 21 36 59 48 51 6 -3 13 2 15 11 4 15 6 15 12 -4 10 -33 45 -31 45 2
0 18 5 25 20 25 11 0 20 4 20 9 0 5 53 8 120 7 66 -1 120 2 120 6 0 5 16 24
35 43 29 30 41 35 80 35 25 0 45 5 45 10 0 6 -33 10 -80 10 -47 0 -80 4 -80
10 0 6 43 10 110 10 103 0 110 1 110 20 0 16 -7 20 -32 21 -27 1 -29 2 -8 6
31 5 162 54 175 65 5 4 23 8 40 9 16 0 24 3 18 6 -17 6 -17 33 0 33 18 0 67
24 67 33 0 4 18 7 40 7 22 0 40 -4 40 -10 0 -5 18 -10 40 -10 23 0 40 5 40 11
0 11 5 11 82 -9 29 -8 39 -6 52 6 10 10 30 15 57 14 34 -2 42 1 46 18 7 26 20
26 28 0 4 -13 15 -20 31 -20 17 0 24 5 24 20 0 12 7 20 16 20 9 0 18 -9 21
-20 6 -23 53 -29 53 -7 0 7 5 18 12 25 9 9 16 8 29 -4 15 -13 24 -14 50 -5 18
6 56 11 85 11 47 0 54 2 54 20 0 17 -7 20 -40 20 -32 0 -40 4 -40 18 0 16 12
18 148 18 165 -1 195 4 208 35 12 25 119 69 170 69 27 0 34 -4 34 -20 0 -25
42 -27 110 -6 41 13 42 15 15 15 -24 1 -27 3 -15 11 10 7 60 8 137 4 129 -7
214 0 210 18 -3 14 79 38 136 38 43 0 47 2 47 25 l0 25 160 0 c100 0 160 4
160 10 0 6 113 10 320 10 190 0 320 -4 320 -9 0 -5 -8 -12 -17 -14 -10 -3 134
-5 320 -6 292 -1 337 -3 337 -16 0 -11 11 -15 40 -15 22 0 40 5 40 11 0 13
553 1 558 -12 2 -5 21 -9 43 -9 32 0 39 -3 39 -20 0 -12 13 -29 33 -40 28 -18
47 -20 169 -19 140 2 176 -6 164 -38 -6 -15 -4 -15 112 -13 68 1 82 -1 82 -14
0 -13 15 -16 89 -16 78 0 92 -3 104 -19 12 -18 25 -20 115 -19 l102 1 40 -42
c32 -33 46 -41 75 -41 23 0 35 -5 35 -14 0 -19 27 -24 88 -18 68 6 102 -3 102
-28 0 -17 -7 -20 -50 -20 -74 0 -61 -17 18 -23 112 -9 162 -22 162 -43 0 -10
12 -14 40 -14 33 0 40 -3 40 -20 0 -18 7 -20 76 -20 51 0 80 -4 89 -14 8 -8
42 -17 75 -21 l60 -7 0 -41 c0 -23 5 -49 10 -57 8 -13 10 -13 10 2 0 17 2 17
30 -1 23 -13 43 -17 80 -13 41 4 50 2 50 -12 0 -12 10 -16 38 -17 20 -1 51 -5
67 -9 23 -6 15 -8 -37 -9 -97 -2 -86 -21 12 -21 l80 0 0 -31 c0 -30 2 -31 33
-26 18 3 45 3 60 0 24 -5 27 -10 27 -45 0 -37 2 -40 48 -59 26 -12 58 -21 72
-21 35 0 63 -17 56 -33 -3 -8 -1 -17 3 -20 5 -3 11 2 15 10 3 8 16 15 28 14
22 -1 22 -1 -2 -8 -22 -7 -18 -9 24 -16 36 -6 58 -17 83 -41 18 -18 33 -37 33
-41 0 -5 14 -14 30 -20 17 -6 30 -18 30 -27 0 -11 9 -16 28 -16 15 0 33 -5 40
-12 9 -9 12 186 12 880 l0 892 -3990 0 -3990 0 0 -650z m1983 -137 c-13 -2
-33 -2 -45 0 -13 2 -3 4 22 4 25 0 35 -2 23 -4z m-63 -23 c0 -5 -18 -10 -40
-10 -22 0 -40 5 -40 10 0 6 18 10 40 10 22 0 40 -4 40 -10z m-610 -61 c0 -5
-7 -9 -15 -9 -9 0 -15 9 -15 21 0 18 2 19 15 9 8 -7 15 -16 15 -21z m218 15
c32 -9 7 -24 -42 -24 -48 0 -54 2 -49 19 4 16 11 19 41 14 21 -2 43 -6 50 -9z
m142 7 c0 -11 -26 -22 -34 -14 -12 12 -5 23 14 23 11 0 20 -4 20 -9z m6163
-748 c-7 -2 -19 -2 -25 0 -7 3 -2 5 12 5 14 0 19 -2 13 -5z"/>
<path d="M3635 7324 c-32 -24 -2 -34 108 -34 80 0 97 3 97 15 0 12 -16 15 -80
15 -47 0 -80 4 -80 10 0 14 -22 12 -45 -6z"/>
<path d="M4095 7320 c-22 -9 -13 -15 38 -23 21 -3 27 0 27 14 0 20 -28 24 -65
9z"/>
<path d="M3090 7310 c0 -5 7 -10 15 -10 8 0 15 -4 15 -10 0 -6 73 -10 200 -10
193 0 200 1 200 20 0 19 -7 20 -215 20 -137 0 -215 -4 -215 -10z"/>
<path d="M4553 7303 c-20 -8 -15 -23 7 -23 22 0 29 -39 8 -41 -7 -1 10 -5 37
-9 74 -12 195 -12 195 0 0 6 60 10 160 10 l160 0 0 30 0 30 -264 0 c-145 0
-270 2 -278 4 -7 3 -19 2 -25 -1z"/>
<path d="M4105 7270 c-28 -7 -27 -8 13 -9 23 0 42 4 42 9 0 11 -11 11 -55 0z"/>
<path d="M4486 7271 c-4 -7 -5 -15 -2 -18 9 -9 19 4 14 18 -4 11 -6 11 -12 0z"/>
<path d="M3117 7253 c-5 -8 378 -6 398 2 6 2 -81 4 -192 4 -111 1 -204 -2
-206 -6z"/>
<path d="M3738 7253 c7 -3 16 -2 19 1 4 3 -2 6 -13 5 -11 0 -14 -3 -6 -6z"/>
<path d="M3790 7250 c20 -13 50 -13 50 0 0 6 -15 10 -32 10 -25 0 -29 -3 -18
-10z"/>
<path d="M2160 7210 c0 -5 5 -10 10 -10 6 0 10 5 10 10 0 6 -4 10 -10 10 -5 0
-10 -4 -10 -10z"/>
<path d="M1778 7113 c12 -2 32 -2 45 0 12 2 2 4 -23 4 -25 0 -35 -2 -22 -4z"/>
<path d="M6130 7066 c0 -2 7 -6 15 -10 8 -3 15 -1 15 4 0 6 -7 10 -15 10 -8 0
-15 -2 -15 -4z"/>
<path d="M1628 7013 c12 -2 30 -2 40 0 9 3 -1 5 -23 4 -22 0 -30 -2 -17 -4z"/>
<path d="M0 6519 c0 -24 23 -21 28 4 2 10 -3 17 -12 17 -10 0 -16 -9 -16 -21z"/>
<path d="M3980 5164 c-138 -51 -145 -57 -227 -192 -25 -41 -30 -112 -12 -159
11 -26 14 -63 18 -191 1 -49 3 -54 30 -63 24 -8 31 -20 45 -68 31 -109 17
-151 -57 -170 -25 -6 -72 -26 -107 -46 -34 -19 -64 -35 -67 -35 -2 0 -47 -28
-99 -61 -75 -49 -103 -74 -132 -118 -54 -80 -61 -101 -77 -222 -8 -60 -21
-122 -30 -139 -21 -40 -19 -56 11 -107 23 -39 24 -47 13 -78 -11 -29 -10 -39
6 -68 11 -21 16 -45 12 -62 -3 -16 3 -61 14 -100 10 -38 19 -79 19 -91 0 -50
-52 -64 -305 -84 -60 -5 -144 -17 -185 -28 -41 -11 -102 -23 -134 -27 -33 -4
-96 -20 -140 -37 -97 -36 -179 -50 -306 -53 -67 -1 -120 -9 -179 -27 l-85 -25
-75 29 c-112 42 -177 55 -261 54 l-75 -1 -47 -80 c-45 -76 -50 -80 -88 -86
-28 -4 -52 0 -78 12 -20 10 -45 20 -56 23 -16 5 -18 13 -13 48 7 49 -15 101
-38 92 -17 -7 -24 -29 -29 -89 -2 -22 -4 -43 -5 -47 -1 -7 -222 -24 -270 -19
-19 2 -75 18 -125 36 -102 37 -143 37 -152 0 -16 -64 100 -197 265 -303 47
-30 150 -98 229 -149 156 -103 196 -123 241 -123 27 0 33 6 57 56 41 87 86
127 174 154 41 12 91 29 111 37 45 18 123 24 174 12 45 -10 240 -21 355 -20
51 0 112 10 190 31 134 36 405 66 455 51 43 -14 163 -29 288 -36 70 -5 112
-12 121 -21 9 -9 16 -51 20 -121 9 -138 9 -141 49 -199 18 -27 39 -65 47 -84
7 -19 28 -67 45 -105 31 -68 65 -203 65 -258 0 -34 21 -78 34 -74 23 7 35 76
35 204 1 106 5 140 20 176 20 45 57 82 94 92 36 10 67 28 67 38 0 5 -19 7 -42
4 -36 -4 -58 2 -128 35 -47 23 -92 44 -99 48 -8 3 -19 20 -23 36 -11 38 1 171
16 183 8 7 44 7 107 0 112 -13 226 -7 291 15 62 22 117 22 203 3 39 -9 145
-19 238 -23 l167 -6 0 -50 c0 -38 -6 -57 -26 -84 -15 -19 -30 -34 -35 -34 -5
0 -29 -15 -55 -32 -38 -28 -54 -33 -100 -32 -44 0 -54 -3 -54 -16 0 -17 17
-27 76 -50 38 -14 78 -54 95 -95 8 -19 13 -87 14 -183 1 -125 4 -155 17 -168
26 -26 36 -9 31 54 -3 40 1 80 17 137 27 101 85 234 113 260 32 29 69 84 63
93 -10 16 11 184 25 192 7 5 47 6 89 2 78 -7 221 -9 325 -4 74 4 369 -13 383
-22 24 -15 223 -48 287 -48 39 0 94 7 124 16 36 10 92 16 162 16 59 0 120 5
136 12 66 27 220 14 275 -24 27 -19 75 -91 94 -143 10 -28 14 -30 61 -29 58 2
93 21 224 127 48 39 123 89 166 112 112 59 163 97 227 165 61 66 75 98 57 136
-15 34 -66 30 -221 -19 -32 -10 -78 -13 -160 -10 -63 2 -121 6 -127 8 -7 3
-13 20 -13 39 0 46 -30 83 -56 68 -14 -8 -19 -22 -19 -54 0 -35 -4 -43 -20
-46 -11 -3 -33 -15 -49 -29 -24 -20 -37 -23 -85 -21 -55 3 -56 4 -76 45 -21
43 -89 123 -105 123 -38 0 -127 -29 -190 -61 -87 -45 -112 -47 -289 -30 -98
10 -133 10 -172 0 -42 -11 -54 -11 -84 4 -20 9 -50 17 -68 17 -18 0 -41 7 -51
15 -11 8 -32 15 -48 15 -15 0 -51 9 -79 19 -28 11 -76 23 -107 26 -32 4 -84
15 -117 25 -33 10 -89 26 -125 36 -36 9 -90 26 -120 39 -30 12 -89 31 -130 41
-41 10 -78 21 -82 24 -3 3 -2 30 4 60 6 30 11 105 13 165 1 63 7 120 14 133 9
18 9 30 0 57 -9 24 -10 43 -3 67 6 18 7 44 3 58 -4 14 -7 69 -8 122 -1 108
-15 185 -41 238 -23 46 -87 112 -141 146 -24 14 -50 34 -60 43 -27 25 -167 97
-227 117 -75 24 -83 45 -48 122 14 33 26 65 26 71 0 7 11 22 24 34 21 20 25
34 30 122 3 55 9 130 12 168 5 58 3 73 -17 110 -13 23 -37 69 -53 102 -40 79
-85 102 -206 110 -47 2 -92 2 -100 -1z"/>
<path d="M7932 2113 c-13 -13 -37 -19 -87 -20 -63 -2 -170 -17 -310 -44 -53
-10 -258 -29 -313 -29 -20 0 -31 4 -27 10 3 6 -3 10 -14 10 -12 0 -21 -7 -21
-15 0 -18 -20 -19 -55 -3 -18 8 -29 8 -33 2 -4 -6 -29 -11 -57 -12 -27 -1 -90
-7 -140 -12 -49 -5 -121 -12 -160 -14 -123 -9 -288 -27 -297 -32 -6 -4 -38 -7
-73 -9 -34 -1 -68 -6 -74 -9 -6 -4 -35 -10 -64 -12 -28 -3 -53 -9 -55 -14 -5
-14 -29 -12 -36 3 -5 10 -7 10 -12 0 -3 -8 -24 -13 -50 -13 -30 0 -52 -6 -66
-19 -15 -15 -26 -17 -43 -11 -13 5 -25 7 -27 5 -1 -2 -62 -8 -133 -15 -72 -6
-168 -15 -215 -21 -47 -5 -110 -12 -140 -15 -30 -2 -71 -9 -90 -14 -33 -10
-189 -36 -275 -47 -22 -3 -44 -9 -49 -13 -5 -5 -22 -6 -38 -3 -24 5 -30 2 -35
-16 -4 -15 -11 -20 -23 -16 -10 3 -21 1 -25 -5 -4 -7 -17 -9 -30 -6 -14 4 -28
0 -35 -9 -7 -8 -19 -15 -27 -15 -8 0 -12 -4 -9 -9 4 -5 -12 -7 -36 -4 -32 3
-39 2 -28 -6 13 -9 13 -11 -2 -11 -9 0 -21 -7 -25 -15 -6 -11 -30 -17 -78 -20
-81 -5 -106 -10 -134 -25 -19 -10 -71 -23 -146 -37 -16 -3 -40 -14 -52 -26
-19 -16 -25 -18 -38 -7 -12 10 -15 10 -15 -4 0 -9 -5 -16 -11 -16 -5 0 -7 4
-4 10 3 5 2 10 -4 10 -5 0 -13 -5 -17 -11 -11 -18 -352 1 -379 21 -5 4 -17 8
-25 8 -8 1 -31 4 -50 7 -19 3 -60 8 -90 10 -116 11 -355 47 -365 56 -5 5 -31
9 -57 9 -45 0 -177 17 -309 40 -30 6 -69 10 -85 10 -17 0 -33 2 -36 5 -3 3
-42 8 -88 10 -45 3 -87 8 -93 12 -6 4 -35 8 -64 9 -39 2 -76 15 -145 50 -51
25 -115 50 -143 54 -27 5 -83 14 -123 20 -59 10 -81 10 -111 0 -32 -10 -47
-10 -92 3 -84 25 -259 22 -259 -4 0 -5 -11 -9 -24 -9 -14 0 -37 -5 -52 -10
-22 -9 -37 -6 -81 15 -29 14 -64 25 -76 25 -12 0 -33 6 -48 13 -33 18 -124 27
-174 19 -40 -8 -76 -3 -171 24 -28 8 -73 14 -99 14 -53 0 -158 -17 -190 -31
-83 -36 -160 -50 -244 -45 -137 10 -299 19 -395 22 -48 1 -99 5 -112 8 l-24 6
0 -940 0 -940 3990 0 3990 0 0 1065 c0 940 -2 1065 -15 1065 -8 0 -23 -8 -33
-17z m-4372 -613 c0 -5 -4 -10 -10 -10 -5 0 -10 5 -10 10 0 6 5 10 10 10 6 0
10 -4 10 -10z m496 -1332 c5 -7 9 -21 9 -31 1 -15 -4 -18 -22 -14 -13 2 -26 1
-29 -4 -5 -8 -165 -2 -173 7 -10 10 25 24 60 24 19 0 44 7 55 15 23 18 90 20
100 3z"/>
<path d="M7280 2050 c0 -5 6 -10 14 -10 8 0 18 5 21 10 3 6 -3 10 -14 10 -12
0 -21 -4 -21 -10z"/>
</g>
</svg>
